<svg xmlns="http://www.w3.org/2000/svg" xmlns:xlink="http://www.w3.org/1999/xlink" width="500" zoomAndPan="magnify" viewBox="0 0 375 374.999991" height="500" preserveAspectRatio="xMidYMid meet" version="1.0"><path fill="#ffffff" d="M 363.976562 265.855469 C 362.96875 251.699219 353.136719 238.738281 339.851562 233.8125 C 293.320312 216.035156 246.929688 197.90625 200.339844 180.335938 C 200.324219 173.707031 198.738281 164.957031 205.570312 160.984375 C 212.710938 157.585938 219.738281 153.570312 224.980469 147.523438 C 237.527344 134.03125 241.617188 113.414062 235.050781 96.1875 C 227.5 74.410156 203.613281 60.046875 180.800781 63.625 C 155.75 66.574219 135.089844 90.898438 137.546875 116.1875 C 139.25 125.019531 151.222656 129.050781 157.890625 122.984375 C 164.425781 118.105469 161.136719 109.113281 164.742188 102.738281 C 169.960938 90.878906 184.894531 84.410156 197.015625 89.398438 C 208.800781 93.589844 215.746094 107.285156 212.570312 119.320312 C 210.695312 127.269531 204.65625 133.886719 197.078125 136.84375 C 187.027344 141.113281 179.191406 150.164062 176.371094 160.699219 C 174.464844 167.03125 175.273438 173.6875 174.894531 180.195312 C 128.378906 197.566406 82.144531 215.761719 35.726562 233.464844 C 22.242188 238.34375 12.234375 251.523438 11.320312 265.855469 C 11.003906 274.480469 10.519531 283.535156 14.09375 291.628906 C 19.6875 305.390625 34.027344 315.039062 48.917969 314.84375 L 163.992188 314.84375 L 163.992188 289.644531 C 125.574219 289.644531 87.175781 289.644531 48.761719 289.617188 C 42.144531 289.738281 36.246094 283.742188 36.421875 277.140625 C 36.472656 272.089844 35.476562 266.390625 38.609375 261.996094 C 40.960938 258.3125 45.339844 257.035156 49.183594 255.558594 C 93.960938 238.441406 138.683594 221.121094 183.480469 204.035156 C 186.472656 202.804688 189.8125 203.140625 192.777344 204.332031 C 238.601562 221.972656 284.4375 239.558594 330.273438 257.160156 C 335.296875 258.8125 339.003906 263.761719 338.894531 269.09375 C 338.84375 274.132812 339.839844 279.800781 336.714844 284.195312 C 334.148438 288.097656 329.359375 290.007812 324.789062 289.660156 C 286.96875 289.628906 249.136719 289.628906 211.324219 289.628906 L 211.324219 314.835938 L 326.347656 314.835938 C 341.269531 315.039062 355.621094 305.402344 361.21875 291.609375 C 364.777344 283.519531 364.324219 274.480469 363.976562 265.855469 Z M 363.976562 265.855469 " fill-opacity="1" fill-rule="nonzero"/></svg>